# Alias OBJ Model File
# Exported from SketchUp, (c) 2000-2012 Trimble Navigation Limited
# File units = millimeters

mtllib My robot.mtl

g Mesh1 Model

usemtl FrontColor
v 185.375 -5.63993e-015 -148.062
vt -7.29825 5.8292
vn 0 -1 -0
v 145.092 -7.04992e-016 -55.7759
vt -5.71226 2.1959
v 130.224 -5.63993e-015 -148.062
vt -5.12695 5.8292
f 1/1/1 2/2/1 3/3/1

v 175.383 -7.04992e-016 -55.7759
vt -6.90483 2.1959
f 2/2/1 1/1/1 4/4/1

v 175.383 -7.04992e-016 -53.1512
vt -6.90483 2.09257
f 4/4/1 1/1/1 5/5/1

v 245.69 0 -49.7031
vt -9.67283 1.95682
f 6/6/1 5/5/1 1/1/1

v 175.205 -7.04992e-016 -53.1512
vt -6.89783 2.09257
f 6/6/1 7/7/1 5/5/1

v 145.092 -7.04992e-016 -53.1512
vt -5.71226 2.09257
f 6/6/1 8/8/1 7/7/1

v 89.4122 0 -49.7031
vt -3.52016 1.95682
f 9/9/1 8/8/1 6/6/1

f 8/8/1 9/9/1 3/3/1

v 130.224 -5.63993e-015 -156.513
vt -5.12695 6.16192
f 3/3/1 9/9/1 10/10/1

v 89.4122 0 -179.703
vt -3.52016 7.07493
f 11/11/1 10/10/1 9/9/1

v 245.69 0 -179.703
vt -9.67283 7.07493
f 10/10/1 11/11/1 12/12/1

vt -9.67283 0
vn 0 0 -1
vt -3.52016 0
v 89.4122 2.8687 -179.703
vt -3.52016 0.112941
v 245.69 2.8687 -179.703
vt -9.67283 0.112941
f 12/13/2 11/14/2 13/15/2 14/16/2 

vt -7.07493 0
vn -1 0 -0
vt -1.95682 0
v 89.4122 2.8687 -49.7031
vt -1.95682 0.112941
vt -7.07493 0.112941
f 11/17/3 9/18/3 15/19/3 13/20/3 

vt 3.52016 0
vn 0 0 1
vt 9.67283 0
v 245.69 2.8687 -49.7031
vt 9.67283 0.112941
vt 3.52016 0.112941
f 9/21/4 6/22/4 16/23/4 15/24/4 

vt 1.95682 0
vn 1 0 -0
vt 7.07493 0
vt 7.07493 0.112941
vt 1.95682 0.112941
f 6/25/5 12/26/5 14/27/5 16/28/5 

f 6/6/1 1/1/1 12/12/1

v 185.375 -5.63993e-015 -156.513
vt -7.29825 6.16192
f 17/29/1 12/12/1 1/1/1

f 10/10/1 12/12/1 17/29/1

vt 5.12695 -2.22045e-016
vt 7.29825 -2.22045e-016
v 185.375 2.8687 -156.513
vt 7.29825 0.112941
v 130.224 2.8687 -156.513
vt 5.12695 0.112941
f 10/30/4 17/31/4 18/32/4 19/33/4 

vt -6.16192 -2.22045e-016
vt -5.8292 -2.22045e-016
v 185.375 2.8687 -148.062
vt -5.8292 0.112941
vt -6.16192 0.112941
f 17/34/3 1/35/3 20/36/3 18/37/3 

vt -7.29825 -2.22045e-016
vt -5.12695 -2.22045e-016
v 130.224 2.8687 -148.062
vt -5.12695 0.112941
vt -7.29825 0.112941
f 1/38/2 3/39/2 21/40/2 20/41/2 

vt 5.8292 -2.22045e-016
vt 6.16192 -2.22045e-016
vt 6.16192 0.112941
vt 5.8292 0.112941
f 3/42/5 10/43/5 19/44/5 21/45/5 

vt 5.12695 6.16192
vn 0 1 -0
vt 3.52016 7.07493
vt 5.12695 5.8292
f 19/46/6 13/47/6 21/48/6

vt 9.67283 7.07493
f 13/47/6 19/46/6 14/49/6

vt 7.29825 6.16192
f 14/49/6 19/46/6 18/50/6

vt 9.67283 1.95682
f 14/49/6 18/50/6 16/51/6

vt 7.29825 5.8292
f 20/52/6 16/51/6 18/50/6

v 175.383 2.8687 -55.7759
vt 6.90483 2.1959
f 22/53/6 16/51/6 20/52/6

v 175.383 2.8687 -53.1512
vt 6.90483 2.09257
f 23/54/6 16/51/6 22/53/6

v 175.205 2.8687 -53.1512
vt 6.89783 2.09257
f 24/55/6 16/51/6 23/54/6

v 145.092 2.8687 -53.1512
vt 5.71226 2.09257
f 25/56/6 16/51/6 24/55/6

vt 3.52016 1.95682
f 25/56/6 15/57/6 16/51/6

f 15/57/6 25/56/6 13/47/6

f 13/47/6 25/56/6 21/48/6

v 145.092 2.8687 -55.7759
vt 5.71226 2.1959
f 26/58/6 21/48/6 25/56/6

f 21/48/6 26/58/6 20/52/6

f 20/52/6 26/58/6 22/53/6

vt 6.90483 0.112941
vt 5.71226 0.112941
vt 5.71226 -2.77556e-017
vt 6.90483 -2.77556e-017
f 22/59/4 26/60/4 2/61/4 4/62/4 

vt 2.1959 0.112941
vt 2.09257 0.112941
vt 2.09257 -2.77556e-017
vt 2.1959 -2.77556e-017
f 26/63/5 25/64/5 8/65/5 2/66/5 

vt -5.71226 0.112941
vt -6.89783 0.112941
vt -6.89783 -2.77556e-017
vt -5.71226 -2.77556e-017
f 25/67/2 24/68/2 7/69/2 8/70/2 

vt -6.90483 0.112941
vt -6.90483 -2.77556e-017
f 24/68/2 23/71/2 5/72/2 7/69/2 

vt -2.09257 0.112941
vt -2.1959 0.112941
vt -2.1959 -2.77556e-017
vt -2.09257 -2.77556e-017
f 23/73/3 22/74/3 4/75/3 5/76/3 

f 8/8/1 3/3/1 2/2/1

